<?xml version="1.0" encoding="UTF-8" standalone="no"?>
<!-- Created with Inkscape (http://www.inkscape.org/) -->
<svg id="svg4874" xmlns:rdf="http://www.w3.org/1999/02/22-rdf-syntax-ns#" xmlns="http://www.w3.org/2000/svg" height="96" viewBox="0 0 96 96.000001" width="96" version="1.1" xmlns:cc="http://creativecommons.org/ns#" xmlns:dc="http://purl.org/dc/elements/1.1/">
 <metadata id="metadata4879">
  <rdf:RDF>
   <cc:Work rdf:about="">
    <dc:format>image/svg+xml</dc:format>
    <dc:type rdf:resource="http://purl.org/dc/dcmitype/StillImage"/>
    <dc:title/>
   </cc:Work>
  </rdf:RDF>
 </metadata>
 <g id="layer1" transform="translate(67.857 -78.505)">
  <rect id="rect4782-4" style="color:#000000;fill:none" transform="rotate(90)" height="96" width="96" y="-28.143" x="78.505"/>
  <path id="path4122" d="m28.144 122.51c0 6.0003-2.5625 9.9699-6.2324 11.896-3.6699 1.9258-8.0754 2.1046-12.285 2.1046h-58.16v-4.0004h58.159c4.0482 0 7.9022-0.32157 10.426-1.6458 2.5236-1.3243 4.0899-3.3542 4.0899-8.3541v-16.01h4.002z" style="color-rendering:auto;text-decoration-color:#000000;color:#000000;font-variant-numeric:normal;shape-rendering:auto;solid-color:#000000;text-decoration-line:none;fill:#808080;font-variant-position:normal;mix-blend-mode:normal;font-feature-settings:normal;shape-padding:0;font-variant-alternates:normal;text-indent:0;font-variant-caps:normal;image-rendering:auto;white-space:normal;text-decoration-style:solid;font-variant-ligatures:none;isolation:auto;text-transform:none"/>
  <path id="path5588-9-2-0" style="color:#000000;fill:#808080" d="m-45.879 122.47-0.0076 24c-3.65-1.6688-7.3659-3.5359-11.149-5.5987-3.7477-2.0678-7.3628-4.2005-10.843-6.4003 3.48-2.1557 7.0951-4.2681 10.843-6.3358 3.7853-2.0639 7.5033-3.9519 11.155-5.6652z"/>
 </g>
</svg>
