<?xml version="1.0" encoding="UTF-8" standalone="no"?>
<!-- Created with Inkscape (http://www.inkscape.org/) -->
<svg id="svg4874" xmlns:rdf="http://www.w3.org/1999/02/22-rdf-syntax-ns#" xmlns="http://www.w3.org/2000/svg" height="96" viewBox="0 0 96 96.000001" width="96" version="1.1" xmlns:cc="http://creativecommons.org/ns#" xmlns:dc="http://purl.org/dc/elements/1.1/">
 <metadata id="metadata4879">
  <rdf:RDF>
   <cc:Work rdf:about="">
    <dc:format>image/svg+xml</dc:format>
    <dc:type rdf:resource="http://purl.org/dc/dcmitype/StillImage"/>
    <dc:title/>
   </cc:Work>
  </rdf:RDF>
 </metadata>
 <g id="layer1" transform="translate(67.857 -78.505)">
  <rect id="rect4782-45" style="color:#000000;fill:none" transform="rotate(90)" height="96" width="96" y="-28.143" x="78.505"/>
  <path id="path4174" d="m24.144 146.51c0 2.6304-0.23773 4.7117-0.8965 6.4662-0.65858 1.7545-1.8499 3.1599-3.3555 3.9906-3.0112 1.6614-6.6938 1.4842-11.727 1.5424h-56.043c-5.0327-0.0582-8.7153 0.11905-11.727-1.5424-1.5056-0.83071-2.6968-2.2361-3.3555-3.9906-0.65858-1.7545-0.89647-3.8358-0.89647-6.4662v-36.001c0-2.6304 0.23773-4.7117 0.89647-6.4662 0.65862-1.7545 1.8499-3.1599 3.3555-3.9906 3.0113-1.6614 6.6938-1.4842 11.727-1.5424h16.091v3.9984h-16.047c-5.0542 0.0584-8.3709 0.23705-9.8379 1.0465-0.73353 0.40471-1.1527 0.85205-1.543 1.8918-0.39031 1.0398-0.64063 2.6928-0.64063 5.0624v36.001c0 2.3696 0.2502 4.0227 0.64063 5.0624 0.39031 1.0398 0.80946 1.4871 1.543 1.8918 1.4645 0.80804 4.7768 0.98773 9.8164 1.0465h55.999c5.0383-0.0588 8.3521-0.23856 9.8164-1.0465 0.73353-0.40471 1.1526-0.85205 1.543-1.8918 0.39035-1.0398 0.64063-2.6928 0.64063-5.0624v-36.001c0-2.3696-0.2502-4.0227-0.64063-5.0624-0.39031-1.0398-0.80942-1.4871-1.543-1.8918-1.4643-0.80792-4.7782-0.98769-9.8164-1.0465h-14.025v-3.9984h14.048c5.0328 0.0582 8.7153-0.11906 11.727 1.5424 1.5056 0.83071 2.6969 2.2361 3.3555 3.9906 0.65862 1.7545 0.8965 3.8358 0.8965 6.4662v36.001z" style="color-rendering:auto;text-decoration-color:#000000;color:#000000;font-variant-numeric:normal;shape-rendering:auto;solid-color:#000000;text-decoration-line:none;fill:#808080;font-variant-position:normal;mix-blend-mode:normal;font-feature-settings:normal;shape-padding:0;font-variant-alternates:normal;text-indent:0;font-variant-caps:normal;image-rendering:auto;white-space:normal;text-decoration-style:solid;font-variant-ligatures:none;isolation:auto;text-transform:none"/>
  <path id="path5588-9-2-96" style="color:#000000;fill:#808080" d="m-36.856 88.505 0.0076 24c3.6501-1.6688 7.366-3.5359 11.149-5.5987 3.7477-2.0678 7.3628-4.2005 10.843-6.4003-3.48-2.1557-7.0951-4.2681-10.843-6.3358-3.7853-2.0639-7.5033-3.9519-11.155-5.6652z"/>
  <text id="text4199" style="font-size:33.062px;font-weight:500;letter-spacing:0px;text-anchor:middle;line-height:125%;word-spacing:0px;text-align:center;font-family:Ubuntu;fill:#808080" xml:space="preserve" y="138.50511" x="-20.479099"><tspan id="tspan4197" x="-20.479099" style="stroke-width:1px;font-family:Ubuntu;font-weight:500;fill:#808080" y="138.50511">1</tspan></text>
 </g>
</svg>
