<?xml version="1.0" encoding="UTF-8" standalone="no"?>
<!-- Created with Inkscape (http://www.inkscape.org/) -->
<svg id="svg4874" xmlns:rdf="http://www.w3.org/1999/02/22-rdf-syntax-ns#" xmlns="http://www.w3.org/2000/svg" height="96" viewBox="0 0 96 96.000001" width="96" version="1.1" xmlns:cc="http://creativecommons.org/ns#" xmlns:dc="http://purl.org/dc/elements/1.1/">
 <metadata id="metadata4879">
  <rdf:RDF>
   <cc:Work rdf:about="">
    <dc:format>image/svg+xml</dc:format>
    <dc:type rdf:resource="http://purl.org/dc/dcmitype/StillImage"/>
    <dc:title/>
   </cc:Work>
  </rdf:RDF>
 </metadata>
 <g id="layer1" transform="translate(67.857 -78.505)">
  <rect id="rect4782-00" style="color:#000000;fill:none" transform="matrix(0,1,1,0,0,0)" height="96" width="96" y="-67.857" x="78.505"/>
  <circle id="path4178-6" r="8" cy="126.51" cx="-19.857" style="color:#000000;fill:#808080"/>
  <path id="path5588-9-2-96-57" style="color:#000000;fill:#808080" d="m-54.786 88.463 16.965 16.976c-3.761 1.401-7.7088 2.7082-11.843 3.9248-4.1122 1.1879-8.1765 2.2361-12.193 3.1414 0.93642-3.9851 1.9991-8.035 3.187-12.147 1.2172-4.136 2.5112-8.1001 3.8821-11.894z"/>
  <path id="path4228" style="color-rendering:auto;text-decoration-color:#000000;color:#000000;font-variant-numeric:normal;shape-rendering:auto;solid-color:#000000;text-decoration-line:none;fill:#808080;font-variant-position:normal;mix-blend-mode:normal;font-feature-settings:normal;shape-padding:0;font-variant-alternates:normal;text-indent:0;font-variant-ligatures:normal;dominant-baseline:auto;font-variant-caps:normal;image-rendering:auto;white-space:normal;text-decoration-style:solid;text-orientation:mixed;isolation:auto;text-transform:none" d="m-20.297 84.512c6.4491-0.06917 12.962 1.3433 19.012 4.3262 16.133 7.9544 25.416 25.317 23.068 43.148-2.3479 17.831-15.811 32.202-33.453 35.711-17.642 3.5086-35.578-4.618-44.572-20.193l3.4648-2c8.1446 14.104 24.352 21.447 40.328 18.27 15.976-3.17 28.139-16.16 30.265-32.31 2.127-16.14-6.261-31.831-20.871-39.034-14.609-7.204-32.165-4.305-43.683 7.211l-2.8281-2.8281c7.949-7.949 18.521-12.182 29.269-12.297z"/>
 </g>
</svg>
