<?xml version="1.0" encoding="UTF-8" standalone="no"?>
<!-- Created with Inkscape (http://www.inkscape.org/) -->

<svg
   xmlns:dc="http://purl.org/dc/elements/1.1/"
   xmlns:cc="http://creativecommons.org/ns#"
   xmlns:rdf="http://www.w3.org/1999/02/22-rdf-syntax-ns#"
   xmlns:svg="http://www.w3.org/2000/svg"
   xmlns="http://www.w3.org/2000/svg"
   xmlns:sodipodi="http://sodipodi.sourceforge.net/DTD/sodipodi-0.dtd"
   xmlns:inkscape="http://www.inkscape.org/namespaces/inkscape"
   width="96"
   height="96"
   id="svg4874"
   version="1.1"
   inkscape:version="0.91+devel r"
   viewBox="0 0 96 96.000001"
   sodipodi:docname="contact-new.svg">
  <defs
     id="defs4876" />
  <sodipodi:namedview
     id="base"
     pagecolor="#ffffff"
     bordercolor="#666666"
     borderopacity="1.0"
     inkscape:pageopacity="0.0"
     inkscape:pageshadow="2"
     inkscape:zoom="8.7812489"
     inkscape:cx="14.445549"
     inkscape:cy="51.535936"
     inkscape:document-units="px"
     inkscape:current-layer="g4780"
     showgrid="true"
     showborder="true"
     fit-margin-top="0"
     fit-margin-left="0"
     fit-margin-right="0"
     fit-margin-bottom="0"
     inkscape:snap-bbox="true"
     inkscape:bbox-paths="true"
     inkscape:bbox-nodes="true"
     inkscape:snap-bbox-edge-midpoints="true"
     inkscape:snap-bbox-midpoints="true"
     inkscape:object-paths="true"
     inkscape:snap-intersection-paths="true"
     inkscape:object-nodes="true"
     inkscape:snap-smooth-nodes="true"
     inkscape:snap-midpoints="true"
     inkscape:snap-object-midpoints="true"
     inkscape:snap-center="true"
     showguides="true"
     inkscape:guide-bbox="true"
     inkscape:snap-global="true">
    <inkscape:grid
       type="xygrid"
       id="grid5451"
       empspacing="8" />
    <sodipodi:guide
       orientation="1,0"
       position="8,-8.0000001"
       id="guide4063" />
    <sodipodi:guide
       orientation="1,0"
       position="4,-8.0000001"
       id="guide4065" />
    <sodipodi:guide
       orientation="0,1"
       position="-8,88.000001"
       id="guide4067" />
    <sodipodi:guide
       orientation="0,1"
       position="-8,92.000001"
       id="guide4069" />
    <sodipodi:guide
       orientation="0,1"
       position="104,4"
       id="guide4071" />
    <sodipodi:guide
       orientation="0,1"
       position="-5,8.0000001"
       id="guide4073" />
    <sodipodi:guide
       orientation="1,0"
       position="88,-8.0000001"
       id="guide4077" />
    <sodipodi:guide
       orientation="0,1"
       position="-8,84.000001"
       id="guide4074" />
    <sodipodi:guide
       orientation="1,0"
       position="12,-8.0000001"
       id="guide4076" />
    <sodipodi:guide
       orientation="1,0"
       position="84,-8.0000001"
       id="guide4080" />
    <sodipodi:guide
       position="48,-8.0000001"
       orientation="1,0"
       id="guide4170" />
    <sodipodi:guide
       position="-8,48"
       orientation="0,1"
       id="guide4172" />
    <sodipodi:guide
       position="92,-8.0000001"
       orientation="1,0"
       id="guide4760" />
  </sodipodi:namedview>
  <metadata
     id="metadata4879">
    <rdf:RDF>
      <cc:Work
         rdf:about="">
        <dc:format>image/svg+xml</dc:format>
        <dc:type
           rdf:resource="http://purl.org/dc/dcmitype/StillImage" />
        <dc:title></dc:title>
      </cc:Work>
    </rdf:RDF>
  </metadata>
  <g
     inkscape:label="Layer 1"
     inkscape:groupmode="layer"
     id="layer1"
     transform="translate(67.857146,-78.50504)">
    <g
       transform="matrix(0,-1,-1,0,373.50506,516.50504)"
       id="g4845"
       style="display:inline">
      <g
         inkscape:export-ydpi="90"
         inkscape:export-xdpi="90"
         inkscape:export-filename="next01.png"
         transform="matrix(-0.9996045,0,0,1,575.94296,-611.00001)"
         id="g4778"
         inkscape:label="Layer 1">
        <g
           transform="matrix(-1,0,0,1,575.99999,611)"
           id="g4780"
           style="display:inline">
          <path
             style="color:#000000;font-style:normal;font-variant:normal;font-weight:normal;font-stretch:normal;font-size:medium;line-height:125%;font-family:Ubuntu;-inkscape-font-specification:'Ubuntu, Normal';font-variant-ligatures:none;font-variant-position:normal;font-variant-caps:normal;font-variant-numeric:normal;font-variant-alternates:normal;font-feature-settings:normal;text-indent:0;text-align:start;text-decoration:none;text-decoration-line:none;text-decoration-style:solid;text-decoration-color:#000000;letter-spacing:0px;word-spacing:0px;text-transform:none;direction:ltr;block-progression:tb;writing-mode:lr-tb;baseline-shift:baseline;text-anchor:start;white-space:normal;shape-padding:0;clip-rule:nonzero;display:inline;overflow:visible;visibility:visible;opacity:1;isolation:auto;mix-blend-mode:normal;color-interpolation:sRGB;color-interpolation-filters:linearRGB;solid-color:#000000;solid-opacity:1;fill:#808080;fill-opacity:1;fill-rule:nonzero;stroke:none;stroke-width:4.00000048;stroke-linecap:butt;stroke-linejoin:miter;stroke-miterlimit:4;stroke-dasharray:none;stroke-dashoffset:0;stroke-opacity:1;color-rendering:auto;image-rendering:auto;shape-rendering:auto;text-rendering:auto;enable-background:accumulate"
             d="M 30 4 C 27.99128 4 26.07326 4.377663 24.3125 5.1386719 C 22.56721 5.861126 21.016929 6.9236905 19.730469 8.2929688 L 19.720703 8.3046875 L 19.708984 8.3164062 C 18.451094 9.6971 17.484991 11.354767 16.806641 13.228516 L 16.804688 13.232422 C 16.115458 15.105071 15.785156 17.148755 15.785156 19.332031 C 15.785156 21.549054 16.115004 23.616298 16.808594 25.496094 C 17.488534 27.338925 18.456354 28.974683 19.708984 30.349609 L 19.720703 30.361328 L 19.730469 30.373047 C 20.256961 30.933441 20.836922 31.431978 21.445312 31.892578 C 21.054897 32.019811 20.670475 32.15481 20.294922 32.302734 C 17.532762 33.390694 15.186304 34.90743 13.339844 36.855469 L 13.330078 36.865234 L 13.322266 36.875 C 11.508266 38.842022 10.142047 41.167106 9.2480469 43.787109 L 9.2421875 43.806641 L 9.234375 43.824219 C 8.405585 46.415014 8 49.195452 8 52.136719 L 8 57.628906 L 8.75 58.226562 C 8.75 58.226562 10.709069 59.772638 14.255859 61.191406 C 17.802649 62.610175 23.06652 64 30 64 C 36.93349 64 42.195397 62.610175 45.742188 61.191406 C 49.288977 59.772638 51.248047 58.226562 51.248047 58.226562 L 52 57.628906 L 52.001953 57.626953 L 52.001953 52.134766 C 52.001953 49.18975 51.565614 46.40471 50.683594 43.810547 C 49.837214 41.171761 48.459718 38.826669 46.585938 36.855469 C 45.881172 36.111955 45.101667 35.432145 44.255859 34.814453 C 43.284649 35.813966 42.202934 36.705914 41.039062 37.472656 C 42.043886 38.10323 42.927287 38.80974 43.679688 39.603516 L 43.681641 39.605469 L 43.681641 39.607422 C 45.148881 41.150191 46.202573 42.934733 46.876953 45.042969 L 46.882812 45.060547 L 46.888672 45.078125 C 47.623422 47.231853 47.998047 49.575272 47.998047 52.136719 L 47.998047 55.605469 C 47.345127 56.036488 46.289079 56.663244 44.255859 57.476562 C 41.136159 58.72448 36.39983 60 30 60 C 23.60017 60 18.861888 58.72448 15.742188 57.476562 C 13.708956 56.663244 12.65292 56.036488 12 55.605469 L 12 52.136719 C 12 49.570314 12.352816 47.220946 13.041016 45.0625 C 13.768026 42.93897 14.832509 41.137225 16.255859 39.591797 C 17.652289 38.122628 19.458856 36.931672 21.759766 36.025391 C 24.006766 35.140331 26.74587 34.666016 30 34.666016 C 32.00206 34.666016 33.910419 34.313877 35.667969 33.589844 L 35.683594 33.582031 L 35.701172 33.572266 C 37.441352 32.817654 38.970462 31.734891 40.226562 30.359375 C 41.514432 28.985179 42.507403 27.344732 43.189453 25.496094 C 43.883053 23.616288 44.212891 21.549054 44.212891 19.332031 C 44.212891 17.147216 43.881636 15.100291 43.191406 13.226562 C 42.510186 11.344877 41.518206 9.6817848 40.222656 8.3007812 C 38.966896 6.9269948 37.433546 5.8604263 35.691406 5.1386719 C 33.929236 4.3761736 32.01069 4 30 4 z M 30 7.9980469 C 31.52314 7.9980469 32.870665 8.2733894 34.109375 8.8105469 L 34.125 8.8164062 L 34.142578 8.8242188 C 35.387278 9.3369959 36.40968 10.053094 37.28125 11.009766 L 37.291016 11.019531 L 37.300781 11.03125 C 38.203621 11.99219 38.912721 13.157194 39.431641 14.591797 L 39.433594 14.597656 L 39.435547 14.603516 C 39.944857 15.983889 40.212891 17.547327 40.212891 19.332031 C 40.212891 21.152541 39.943357 22.735043 39.435547 24.111328 C 38.918277 25.513333 38.209951 26.667108 37.300781 27.634766 L 37.291016 27.646484 L 37.28125 27.658203 C 36.40727 28.617534 35.374247 29.349467 34.123047 29.894531 C 32.881877 30.40304 31.52817 30.667969 30 30.667969 C 28.47185 30.667969 27.11615 30.40304 25.875 29.894531 C 24.6244 29.349827 23.572499 28.611942 22.662109 27.646484 C 21.782859 26.678907 21.08231 25.520161 20.5625 24.111328 C 20.05469 22.735043 19.785156 21.152541 19.785156 19.332031 C 19.785156 17.547327 20.05319 15.983889 20.5625 14.603516 L 20.564453 14.597656 L 20.566406 14.591797 C 21.087736 13.150587 21.788979 11.982404 22.662109 11.021484 C 23.569989 10.058865 24.611839 9.336556 25.855469 8.8242188 L 25.873047 8.8164062 L 25.888672 8.8105469 C 27.127362 8.2733894 28.47688 7.9980469 30 7.9980469 z "
             transform="matrix(0,-1,-1.0003957,0,438.00245,441.36222)"
             id="path4202-6" />
          <rect
             style="color:#000000;display:inline;overflow:visible;visibility:visible;fill:none;stroke:none;stroke-width:4;marker:none;enable-background:accumulate"
             id="rect4782"
             width="96.037987"
             height="96"
             x="-438.00244"
             y="345.36221"
             transform="scale(-1,1)" />
          <path
             style="color:#000000;display:inline;overflow:visible;visibility:visible;fill:#808080;fill-opacity:1;fill-rule:nonzero;stroke:none;stroke-width:7.5;marker:none;enable-background:accumulate"
             d="m 384.98148,371.3622 1.0004,-3.99998 -40.01574,0 0,3.99998 z"
             id="rect3470"
             inkscape:connector-curvature="0"
             sodipodi:nodetypes="ccccc" />
          <rect
             transform="scale(-1,1)"
             style="color:#000000;display:inline;overflow:visible;visibility:visible;fill:#808080;fill-opacity:1;fill-rule:nonzero;stroke:none;stroke-width:7.5;marker:none;enable-background:accumulate"
             id="rect3472"
             width="4.0014911"
             height="40.000053"
             x="-367.97476"
             y="349.36221" />
        </g>
      </g>
    </g>
  </g>
</svg>
