<?xml version="1.0" encoding="UTF-8" standalone="no"?>
<!-- Created with Inkscape (http://www.inkscape.org/) -->

<svg
   xmlns:dc="http://purl.org/dc/elements/1.1/"
   xmlns:cc="http://creativecommons.org/ns#"
   xmlns:rdf="http://www.w3.org/1999/02/22-rdf-syntax-ns#"
   xmlns:svg="http://www.w3.org/2000/svg"
   xmlns="http://www.w3.org/2000/svg"
   xmlns:sodipodi="http://sodipodi.sourceforge.net/DTD/sodipodi-0.dtd"
   xmlns:inkscape="http://www.inkscape.org/namespaces/inkscape"
   width="96"
   height="96"
   id="svg4874"
   version="1.1"
   inkscape:version="0.91+devel r"
   viewBox="0 0 96 96.000001"
   sodipodi:docname="contact-group.svg">
  <defs
     id="defs4876" />
  <sodipodi:namedview
     id="base"
     pagecolor="#ffffff"
     bordercolor="#666666"
     borderopacity="1.0"
     inkscape:pageopacity="0.0"
     inkscape:pageshadow="2"
     inkscape:zoom="3.5967995"
     inkscape:cx="12.733532"
     inkscape:cy="5.9357965"
     inkscape:document-units="px"
     inkscape:current-layer="g4780"
     showgrid="true"
     showborder="true"
     fit-margin-top="0"
     fit-margin-left="0"
     fit-margin-right="0"
     fit-margin-bottom="0"
     inkscape:snap-bbox="true"
     inkscape:bbox-paths="true"
     inkscape:bbox-nodes="true"
     inkscape:snap-bbox-edge-midpoints="true"
     inkscape:snap-bbox-midpoints="true"
     inkscape:object-paths="true"
     inkscape:snap-intersection-paths="true"
     inkscape:object-nodes="true"
     inkscape:snap-smooth-nodes="true"
     inkscape:snap-midpoints="true"
     inkscape:snap-object-midpoints="true"
     inkscape:snap-center="true"
     showguides="true"
     inkscape:guide-bbox="true">
    <inkscape:grid
       type="xygrid"
       id="grid5451"
       empspacing="8" />
    <sodipodi:guide
       orientation="1,0"
       position="8,-8.0000001"
       id="guide4063" />
    <sodipodi:guide
       orientation="1,0"
       position="4,-8.0000001"
       id="guide4065" />
    <sodipodi:guide
       orientation="0,1"
       position="-8,88.000001"
       id="guide4067" />
    <sodipodi:guide
       orientation="0,1"
       position="-8,92.000001"
       id="guide4069" />
    <sodipodi:guide
       orientation="0,1"
       position="104,4"
       id="guide4071" />
    <sodipodi:guide
       orientation="0,1"
       position="-5,8.0000001"
       id="guide4073" />
    <sodipodi:guide
       orientation="1,0"
       position="92,-8.0000001"
       id="guide4075" />
    <sodipodi:guide
       orientation="1,0"
       position="88,-8.0000001"
       id="guide4077" />
    <sodipodi:guide
       orientation="0,1"
       position="-8,84.000001"
       id="guide4074" />
    <sodipodi:guide
       orientation="1,0"
       position="12,-8.0000001"
       id="guide4076" />
    <sodipodi:guide
       orientation="0,1"
       position="-5,12"
       id="guide4078" />
    <sodipodi:guide
       orientation="1,0"
       position="84,-9.0000001"
       id="guide4080" />
    <sodipodi:guide
       position="48,-8.0000001"
       orientation="1,0"
       id="guide4170" />
    <sodipodi:guide
       position="-8,48"
       orientation="0,1"
       id="guide4172" />
  </sodipodi:namedview>
  <metadata
     id="metadata4879">
    <rdf:RDF>
      <cc:Work
         rdf:about="">
        <dc:format>image/svg+xml</dc:format>
        <dc:type
           rdf:resource="http://purl.org/dc/dcmitype/StillImage" />
        <dc:title></dc:title>
      </cc:Work>
    </rdf:RDF>
  </metadata>
  <g
     inkscape:label="Layer 1"
     inkscape:groupmode="layer"
     id="layer1"
     transform="translate(67.857146,-78.50504)">
    <g
       transform="matrix(0,-1,-1,0,373.50506,516.50504)"
       id="g4845"
       style="display:inline">
      <g
         inkscape:export-ydpi="90"
         inkscape:export-xdpi="90"
         inkscape:export-filename="next01.png"
         transform="matrix(-0.9996045,0,0,1,575.94296,-611.00001)"
         id="g4778"
         inkscape:label="Layer 1">
        <g
           transform="matrix(-1,0,0,1,575.99999,611)"
           id="g4780"
           style="display:inline">
          <path
             style="color:#000000;font-style:normal;font-variant:normal;font-weight:normal;font-stretch:normal;font-size:medium;line-height:125%;font-family:Ubuntu;-inkscape-font-specification:'Ubuntu, Normal';text-indent:0;text-align:start;text-decoration:none;text-decoration-line:none;text-decoration-style:solid;text-decoration-color:#000000;letter-spacing:0px;word-spacing:0px;text-transform:none;direction:ltr;block-progression:tb;writing-mode:lr-tb;baseline-shift:baseline;text-anchor:start;white-space:normal;shape-padding:0;clip-rule:nonzero;display:inline;overflow:visible;visibility:visible;opacity:1;isolation:auto;mix-blend-mode:normal;color-interpolation:sRGB;color-interpolation-filters:linearRGB;solid-color:#000000;solid-opacity:1;fill:#808080;fill-opacity:1;fill-rule:nonzero;stroke:none;stroke-width:3.99999976;stroke-linecap:butt;stroke-linejoin:miter;stroke-miterlimit:4;stroke-dasharray:none;stroke-dashoffset:0;stroke-opacity:1;color-rendering:auto;image-rendering:auto;shape-rendering:auto;text-rendering:auto;enable-background:accumulate"
             d="M 28.509766 15 C 26.309366 15 24.213316 15.418506 22.291016 16.263672 C 20.383606 17.066204 18.696562 18.246332 17.294922 19.763672 L 17.285156 19.775391 L 17.275391 19.787109 C 15.906251 21.315555 14.853221 23.147625 14.113281 25.226562 L 14.111328 25.230469 C 13.360798 27.303948 13 29.571841 13 32 C 13 34.466024 13.360434 36.753418 14.115234 38.833984 C 14.856744 40.877986 15.911471 42.690253 17.275391 44.212891 L 17.285156 44.224609 L 17.294922 44.234375 C 17.970657 44.965893 18.714571 45.618776 19.513672 46.197266 C 18.884315 46.385467 18.267052 46.589788 17.671875 46.824219 C 14.592825 48.036959 11.988733 49.720828 9.9394531 51.882812 L 9.9296875 51.892578 L 9.9199219 51.902344 C 7.9031319 54.089218 6.386055 56.676584 5.390625 59.59375 L 5.3847656 59.611328 L 5.3769531 59.628906 C 4.4531031 62.516834 3.9980469 65.616404 3.9980469 68.902344 L 3.9980469 74.960938 L 4.75 75.5625 C 4.75 75.5625 6.9173794 77.271989 10.880859 78.857422 C 14.844339 80.442855 20.731147 82 28.498047 82 C 30.450537 82 32.283677 81.901137 33.998047 81.728516 L 33.998047 77.699219 C 32.299767 77.884585 30.474767 78 28.498047 78 C 21.264797 78 15.903587 76.559122 12.367188 75.144531 C 9.9065775 74.160261 8.69359 73.410537 8 72.939453 L 8 68.902344 C 8 65.992815 8.3992306 63.3236 9.1816406 60.869141 C 10.009281 58.449688 11.225299 56.391725 12.849609 54.626953 C 14.449619 52.94118 16.515899 51.577183 19.136719 50.544922 C 21.700629 49.535051 24.812957 49 28.498047 49 C 28.501998 49.000003 28.505814 49 28.509766 49 C 30.703516 49 32.789634 48.604973 34.708984 47.800781 L 34.726562 47.794922 L 34.744141 47.787109 C 36.648031 46.947422 38.315354 45.744456 39.683594 44.21875 C 41.084604 42.697512 42.161417 40.881834 42.904297 38.833984 C 43.659077 36.753418 44.021484 34.466024 44.021484 32 C 44.021484 29.570291 43.65774 27.301102 42.90625 25.226562 C 42.16502 23.143996 41.089894 21.308336 39.683594 19.78125 C 38.314074 18.254174 36.638096 17.067194 34.728516 16.263672 C 32.806196 15.418506 30.710186 15 28.509766 15 z M 28.509766 18.998047 C 30.216416 18.998047 31.733146 19.312148 33.128906 19.927734 L 33.146484 19.935547 L 33.162109 19.941406 C 34.563739 20.528674 35.721944 21.353154 36.708984 22.455078 L 36.720703 22.466797 L 36.730469 22.478516 C 37.752199 23.584538 38.553742 24.925623 39.138672 26.570312 L 39.140625 26.576172 L 39.142578 26.582031 C 39.718148 28.168604 40.019531 29.963626 40.019531 32 C 40.019531 34.076169 39.716688 35.890122 39.142578 37.472656 C 38.559268 39.08064 37.758469 40.410618 36.730469 41.523438 L 36.720703 41.535156 L 36.708984 41.544922 C 35.720554 42.648405 34.553184 43.491671 33.146484 44.115234 C 31.747484 44.699103 30.223066 45 28.509766 45 C 28.506426 45 28.503338 45.000002 28.5 45 C 26.790804 44.998841 25.2693 44.697955 23.873047 44.115234 C 22.467147 43.492141 21.27801 42.644207 20.25 41.535156 C 19.25485 40.422017 18.462923 39.087897 17.876953 37.472656 C 17.302843 35.890122 17 34.076169 17 32 C 17 29.963626 17.301383 28.168604 17.876953 26.582031 L 17.878906 26.576172 L 17.880859 26.570312 C 18.467789 24.920075 19.260237 23.574582 20.248047 22.46875 C 21.275027 21.360429 22.456252 20.528474 23.857422 19.941406 L 23.875 19.935547 L 23.890625 19.927734 C 25.286355 19.312148 26.803146 18.998047 28.509766 18.998047 z "
             transform="matrix(0,-1,-1.0003957,0,438.00245,441.36222)"
             id="path4188" />
          <path
             style="color:#000000;font-style:normal;font-variant:normal;font-weight:normal;font-stretch:normal;font-size:medium;line-height:125%;font-family:Ubuntu;-inkscape-font-specification:'Ubuntu, Normal';font-variant-ligatures:none;font-variant-position:normal;font-variant-caps:normal;font-variant-numeric:normal;font-variant-alternates:normal;font-feature-settings:normal;text-indent:0;text-align:start;text-decoration:none;text-decoration-line:none;text-decoration-style:solid;text-decoration-color:#000000;letter-spacing:0px;word-spacing:0px;text-transform:none;direction:ltr;block-progression:tb;writing-mode:lr-tb;baseline-shift:baseline;text-anchor:start;white-space:normal;shape-padding:0;clip-rule:nonzero;display:inline;overflow:visible;visibility:visible;opacity:1;isolation:auto;mix-blend-mode:normal;color-interpolation:sRGB;color-interpolation-filters:linearRGB;solid-color:#000000;solid-opacity:1;fill:#808080;fill-opacity:1;fill-rule:nonzero;stroke:none;stroke-width:4.00000048;stroke-linecap:butt;stroke-linejoin:miter;stroke-miterlimit:4;stroke-dasharray:none;stroke-dashoffset:0;stroke-opacity:1;color-rendering:auto;image-rendering:auto;shape-rendering:auto;text-rendering:auto;enable-background:accumulate"
             d="M 65.818359 12 C 63.440279 12 61.181702 12.447502 59.107422 13.347656 C 57.044842 14.203388 55.220995 15.459513 53.703125 17.082031 L 53.693359 17.09375 L 53.683594 17.105469 C 52.204784 18.735604 51.064959 20.694432 50.261719 22.919922 C 49.445099 25.143392 49.048828 27.577666 49.048828 30.189453 C 49.048828 32.838215 49.443169 35.295459 50.261719 37.523438 C 51.066709 39.714541 52.208174 41.650927 53.683594 43.277344 L 53.693359 43.287109 L 53.703125 43.298828 C 54.542479 44.19606 55.482955 44.97515 56.496094 45.654297 C 55.810828 45.859899 55.138769 46.084088 54.492188 46.341797 C 51.221417 47.645391 48.460406 49.453568 46.291016 51.769531 L 46.28125 51.779297 L 46.271484 51.789062 C 44.134454 54.133936 42.529229 56.903827 41.474609 60.03125 L 41.46875 60.048828 L 41.460938 60.066406 C 40.481426 63.16476 40 66.491491 40 70.021484 L 40 76.478516 L 40.740234 77.078125 C 40.740234 77.078125 43.033097 78.909139 47.248047 80.615234 C 51.462997 82.321329 57.72993 84 66 84 C 74.27006 84 80.53505 82.321329 84.75 80.615234 C 88.96495 78.909139 91.257812 77.078125 91.257812 77.078125 L 92 76.478516 L 92.001953 76.478516 L 92.001953 70.021484 C 92.001953 66.486403 91.485076 63.153644 90.441406 60.050781 C 89.444176 56.904556 87.827101 54.116799 85.619141 51.767578 C 84.384236 50.449629 82.949461 49.301879 81.345703 48.3125 C 80.310574 49.309921 79.176775 50.207492 77.964844 50.980469 C 79.845956 51.954165 81.412563 53.128388 82.699219 54.501953 L 82.699219 54.503906 L 82.701172 54.503906 C 84.504452 56.422547 85.802649 58.651551 86.630859 61.271484 L 86.636719 61.291016 L 86.642578 61.308594 C 87.541038 63.973519 87.998047 66.866853 87.998047 70.021484 L 87.998047 74.470703 C 87.289377 74.965287 85.974267 75.806663 83.248047 76.910156 C 79.463127 78.44218 73.73006 80 66 80 C 58.26993 80 52.53492 78.44218 48.75 76.910156 C 46.02271 75.806223 44.70821 74.965048 44 74.470703 L 44 70.021484 C 44 66.862864 44.428281 63.961983 45.269531 61.292969 C 46.159851 58.659531 47.469157 56.414891 49.216797 54.494141 C 50.939887 52.657157 53.163726 51.176158 55.972656 50.056641 C 58.681519 48.97696 61.957489 48.400695 65.818359 48.382812 C 68.191279 48.382812 70.441492 47.960836 72.513672 47.103516 L 72.53125 47.095703 L 72.548828 47.087891 C 74.605758 46.192105 76.405006 44.910715 77.884766 43.28125 C 79.400616 41.656333 80.56858 39.718489 81.375 37.523438 C 82.19355 35.295459 82.585938 32.838215 82.585938 30.189453 C 82.585938 27.582125 82.192696 25.152032 81.378906 22.931641 L 81.378906 22.929688 C 80.574126 20.695951 79.406526 18.730964 77.884766 17.099609 C 76.401736 15.466605 74.591151 14.202394 72.525391 13.345703 C 70.452181 12.446699 68.194969 12 65.818359 12 z M 65.818359 16 C 67.710299 16 69.397089 16.341616 70.949219 17.017578 L 70.966797 17.025391 L 70.984375 17.033203 C 72.542475 17.677828 73.832334 18.583493 74.927734 19.791016 L 74.9375 19.800781 L 74.949219 19.8125 C 76.082849 21.024241 76.968171 22.492102 77.613281 24.283203 L 77.617188 24.291016 L 77.619141 24.296875 C 78.254701 26.026791 78.585938 27.978268 78.585938 30.189453 C 78.585938 32.443391 78.253211 34.418684 77.619141 36.144531 C 76.975681 37.896038 76.089159 39.349861 74.949219 40.568359 L 74.9375 40.578125 L 74.927734 40.589844 C 73.829264 41.800765 72.527027 42.72803 70.960938 43.412109 C 69.407587 44.051266 67.713669 44.380859 65.818359 44.380859 C 63.923089 44.380859 62.227158 44.051266 60.673828 43.412109 C 59.106938 42.72775 57.779319 41.796813 56.636719 40.578125 C 55.534469 39.360057 54.661275 37.901946 54.015625 36.144531 C 53.381555 34.418684 53.048828 32.443391 53.048828 30.189453 C 53.048828 27.978268 53.380065 26.026791 54.015625 24.296875 L 54.019531 24.291016 L 54.021484 24.283203 C 54.668644 22.486454 55.540599 21.014125 56.636719 19.802734 C 57.776169 18.587525 59.091821 17.678018 60.650391 17.033203 L 60.667969 17.025391 L 60.685547 17.017578 C 62.237647 16.341616 63.926459 16 65.818359 16 z "
             transform="matrix(0,-1,-1.0003957,0,438.00245,441.36222)"
             id="path4202-6" />
          <rect
             style="color:#000000;display:inline;overflow:visible;visibility:visible;fill:none;stroke:none;stroke-width:4;marker:none;enable-background:accumulate"
             id="rect4782"
             width="96.037987"
             height="96"
             x="-438.00244"
             y="345.36221"
             transform="scale(-1,1)" />
        </g>
      </g>
    </g>
  </g>
</svg>
