<?xml version="1.0" encoding="UTF-8" standalone="no"?>
<!-- Created with Inkscape (http://www.inkscape.org/) -->

<svg
   xmlns:dc="http://purl.org/dc/elements/1.1/"
   xmlns:cc="http://creativecommons.org/ns#"
   xmlns:rdf="http://www.w3.org/1999/02/22-rdf-syntax-ns#"
   xmlns:svg="http://www.w3.org/2000/svg"
   xmlns="http://www.w3.org/2000/svg"
   xmlns:sodipodi="http://sodipodi.sourceforge.net/DTD/sodipodi-0.dtd"
   xmlns:inkscape="http://www.inkscape.org/namespaces/inkscape"
   width="96"
   height="96"
   id="svg4874"
   version="1.1"
   inkscape:version="0.91+devel r"
   viewBox="0 0 96 96.000001"
   sodipodi:docname="contact.svg">
  <defs
     id="defs4876" />
  <sodipodi:namedview
     id="base"
     pagecolor="#ffffff"
     bordercolor="#666666"
     borderopacity="1.0"
     inkscape:pageopacity="0.0"
     inkscape:pageshadow="2"
     inkscape:zoom="4.4959993"
     inkscape:cx="36.832735"
     inkscape:cy="66.581386"
     inkscape:document-units="px"
     inkscape:current-layer="g4780"
     showgrid="true"
     showborder="true"
     fit-margin-top="0"
     fit-margin-left="0"
     fit-margin-right="0"
     fit-margin-bottom="0"
     inkscape:snap-bbox="true"
     inkscape:bbox-paths="true"
     inkscape:bbox-nodes="true"
     inkscape:snap-bbox-edge-midpoints="true"
     inkscape:snap-bbox-midpoints="true"
     inkscape:object-paths="true"
     inkscape:snap-intersection-paths="true"
     inkscape:object-nodes="true"
     inkscape:snap-smooth-nodes="true"
     inkscape:snap-midpoints="true"
     inkscape:snap-object-midpoints="true"
     inkscape:snap-center="true"
     showguides="true"
     inkscape:guide-bbox="true">
    <inkscape:grid
       type="xygrid"
       id="grid5451"
       empspacing="8" />
    <sodipodi:guide
       orientation="1,0"
       position="8,-8.0000001"
       id="guide4063" />
    <sodipodi:guide
       orientation="1,0"
       position="4,-8.0000001"
       id="guide4065" />
    <sodipodi:guide
       orientation="0,1"
       position="-8,88.000001"
       id="guide4067" />
    <sodipodi:guide
       orientation="0,1"
       position="-8,92.000001"
       id="guide4069" />
    <sodipodi:guide
       orientation="0,1"
       position="104,4"
       id="guide4071" />
    <sodipodi:guide
       orientation="0,1"
       position="-5,8.0000001"
       id="guide4073" />
    <sodipodi:guide
       orientation="1,0"
       position="92,-8.0000001"
       id="guide4075" />
    <sodipodi:guide
       orientation="1,0"
       position="88,-8.0000001"
       id="guide4077" />
    <sodipodi:guide
       orientation="0,1"
       position="-8,84.000001"
       id="guide4074" />
    <sodipodi:guide
       orientation="1,0"
       position="12,-8.0000001"
       id="guide4076" />
    <sodipodi:guide
       orientation="0,1"
       position="-5,12"
       id="guide4078" />
    <sodipodi:guide
       orientation="1,0"
       position="84,-9.0000001"
       id="guide4080" />
    <sodipodi:guide
       position="48,-8.0000001"
       orientation="1,0"
       id="guide4170" />
    <sodipodi:guide
       position="-8,48"
       orientation="0,1"
       id="guide4172" />
  </sodipodi:namedview>
  <metadata
     id="metadata4879">
    <rdf:RDF>
      <cc:Work
         rdf:about="">
        <dc:format>image/svg+xml</dc:format>
        <dc:type
           rdf:resource="http://purl.org/dc/dcmitype/StillImage" />
        <dc:title></dc:title>
      </cc:Work>
    </rdf:RDF>
  </metadata>
  <g
     inkscape:label="Layer 1"
     inkscape:groupmode="layer"
     id="layer1"
     transform="translate(67.857146,-78.50504)">
    <g
       transform="matrix(0,-1,-1,0,373.50506,516.50504)"
       id="g4845"
       style="display:inline">
      <g
         inkscape:export-ydpi="90"
         inkscape:export-xdpi="90"
         inkscape:export-filename="next01.png"
         transform="matrix(-0.9996045,0,0,1,575.94296,-611.00001)"
         id="g4778"
         inkscape:label="Layer 1">
        <g
           transform="matrix(-1,0,0,1,575.99999,611)"
           id="g4780"
           style="display:inline">
          <rect
             style="color:#000000;display:inline;overflow:visible;visibility:visible;fill:none;stroke:none;stroke-width:4;marker:none;enable-background:accumulate"
             id="rect4782"
             width="96.037987"
             height="96"
             x="-438.00244"
             y="345.36221"
             transform="scale(-1,1)" />
          <path
             style="color:#000000;font-style:normal;font-variant:normal;font-weight:normal;font-stretch:normal;font-size:medium;line-height:125%;font-family:Ubuntu;-inkscape-font-specification:'Ubuntu, Normal';font-variant-ligatures:none;font-variant-position:normal;font-variant-caps:normal;font-variant-numeric:normal;font-variant-alternates:normal;font-feature-settings:normal;text-indent:0;text-align:start;text-decoration:none;text-decoration-line:none;text-decoration-style:solid;text-decoration-color:#000000;letter-spacing:0px;word-spacing:0px;text-transform:none;direction:ltr;block-progression:tb;writing-mode:lr-tb;baseline-shift:baseline;text-anchor:start;white-space:normal;shape-padding:0;clip-rule:nonzero;display:inline;overflow:visible;visibility:visible;opacity:1;isolation:auto;mix-blend-mode:normal;color-interpolation:sRGB;color-interpolation-filters:linearRGB;solid-color:#000000;solid-opacity:1;fill:#808080;fill-opacity:1;fill-rule:nonzero;stroke:none;stroke-width:4.00000048;stroke-linecap:butt;stroke-linejoin:miter;stroke-miterlimit:4;stroke-dasharray:none;stroke-dashoffset:0;stroke-opacity:1;color-rendering:auto;image-rendering:auto;shape-rendering:auto;text-rendering:auto;enable-background:accumulate"
             d="M 48 4 C 45.10696 4 42.370995 4.5403231 39.859375 5.6269531 C 37.363275 6.6586649 35.163282 8.1696436 33.326172 10.125 L 33.314453 10.136719 L 33.304688 10.146484 C 31.512838 12.113266 30.129071 14.479594 29.150391 17.183594 L 29.148438 17.1875 C 28.158817 19.874207 27.677734 22.823687 27.677734 26 C 27.677734 29.226393 28.158384 32.20268 29.152344 34.896484 C 30.132624 37.553323 31.518107 39.892522 33.304688 41.853516 L 33.314453 41.863281 L 33.326172 41.875 C 34.554174 43.182064 35.945578 44.295725 37.474609 45.216797 C 36.201818 45.54193 34.976137 45.926846 33.808594 46.386719 C 29.779014 47.973861 26.393928 50.163006 23.736328 52.966797 L 23.726562 52.978516 L 23.716797 52.990234 C 21.091647 55.836778 19.117939 59.195343 17.818359 63.003906 L 17.8125 63.023438 L 17.804688 63.041016 C 16.595667 66.82035 16 70.883124 16 75.203125 L 16 82.958984 L 16.75 83.560547 C 16.75 83.560547 19.542439 85.770054 24.755859 87.855469 C 29.969279 89.940894 37.73317 92 48 92 C 58.26683 92 66.028768 89.940894 71.242188 87.855469 C 76.455607 85.770054 79.248047 83.560547 79.248047 83.560547 L 79.998047 82.958984 L 80 82.958984 L 80 75.203125 C 80 70.879426 79.361739 66.810087 78.074219 63.027344 C 76.847199 59.198669 74.862211 55.816216 72.150391 52.964844 C 70.195157 50.902569 67.84223 49.175941 65.132812 47.773438 C 63.988704 48.779806 62.745305 49.673028 61.435547 50.455078 C 64.623785 51.819515 67.211031 53.571798 69.246094 55.71875 L 69.248047 55.720703 C 71.551777 58.142995 73.212968 60.962969 74.267578 64.259766 L 74.273438 64.277344 L 74.279297 64.294922 C 75.419527 67.637179 75.998047 71.262954 75.998047 75.203125 L 75.998047 80.939453 C 75.225617 81.491535 73.487299 82.649959 69.755859 84.142578 C 64.969529 86.057161 57.73318 88 48 88 C 38.26682 88 31.028527 86.057161 26.242188 84.142578 C 22.510746 82.649959 20.77243 81.491535 20 80.939453 L 20 75.203125 C 20 71.257946 20.542928 67.626233 21.611328 64.279297 C 22.743148 60.969436 24.414394 58.136702 26.646484 55.712891 C 28.854784 53.385362 31.702026 51.514105 35.273438 50.107422 C 38.780367 48.7261 43.004713 48.001131 47.96875 47.998047 C 47.979327 47.998061 47.989419 48 48 48 C 50.88645 48 53.610721 47.490392 56.119141 46.457031 L 56.136719 46.451172 L 56.154297 46.443359 C 58.645337 45.363167 60.817402 43.822912 62.607422 41.861328 C 64.445962 39.901054 65.863303 37.559081 66.845703 34.896484 C 67.839643 32.20268 68.320312 29.226383 68.320312 26 C 68.320312 22.822127 67.838246 19.87136 66.847656 17.183594 C 65.866106 14.471697 64.449746 12.099894 62.603516 10.132812 C 60.813086 8.1721383 58.632882 6.6579752 56.138672 5.6269531 C 53.627032 4.5403231 50.89307 4 48 4 z M 48 7.9980469 C 50.40753 7.9980469 52.57292 8.4360595 54.5625 9.2988281 L 54.578125 9.3066406 L 54.595703 9.3125 C 56.591283 10.134595 58.254646 11.297094 59.660156 12.839844 L 59.669922 12.851562 L 59.681641 12.863281 C 61.135141 14.410299 62.268621 16.281981 63.087891 18.546875 L 63.089844 18.552734 L 63.091797 18.558594 C 63.901457 20.752976 64.320312 23.222209 64.320312 26 C 64.320312 28.82987 63.899957 31.321425 63.091797 33.511719 C 62.274177 35.727732 61.141471 37.582973 59.681641 39.136719 L 59.669922 39.146484 L 59.660156 39.158203 C 58.253876 40.701822 56.583154 41.891243 54.583984 42.761719 C 52.590224 43.581264 50.41525 44 48 44 C 45.58617 44 43.410769 43.580325 41.417969 42.761719 C 39.417189 41.890893 37.712473 40.69834 36.251953 39.146484 C 34.839603 37.593219 33.7261 35.73372 32.90625 33.511719 C 32.09808 31.321425 31.677734 28.82987 31.677734 26 C 31.677734 23.222219 32.09658 20.752966 32.90625 18.558594 L 32.908203 18.552734 L 32.910156 18.546875 C 33.731526 16.276243 34.845753 14.398161 36.251953 12.851562 C 37.711323 11.301056 39.406294 10.134785 41.402344 9.3125 L 41.419922 9.3066406 L 41.4375 9.2988281 C 43.42706 8.4360595 45.59251 7.9980469 48 7.9980469 z "
             transform="matrix(0,-1,-1.0003957,0,438.00245,441.36222)"
             id="path4202" />
        </g>
      </g>
    </g>
  </g>
</svg>
