<?xml version="1.0" encoding="UTF-8" standalone="no"?>
<!-- Created with Inkscape (http://www.inkscape.org/) -->
<svg id="svg4874" xmlns:rdf="http://www.w3.org/1999/02/22-rdf-syntax-ns#" xmlns="http://www.w3.org/2000/svg" height="96" viewBox="0 0 96 96.000001" width="96" version="1.1" xmlns:cc="http://creativecommons.org/ns#" xmlns:dc="http://purl.org/dc/elements/1.1/">
 <metadata id="metadata4879">
  <rdf:RDF>
   <cc:Work rdf:about="">
    <dc:format>image/svg+xml</dc:format>
    <dc:type rdf:resource="http://purl.org/dc/dcmitype/StillImage"/>
    <dc:title/>
   </cc:Work>
  </rdf:RDF>
 </metadata>
 <g id="layer1" transform="translate(67.857 -78.505)">
  <rect id="rect4782" style="color:#000000;fill:none" transform="rotate(90)" height="96" width="96" y="-28.143" x="78.505"/>
  <path id="path4643" style="color-rendering:auto;text-decoration-color:#000000;color:#000000;font-variant-numeric:normal;shape-rendering:auto;solid-color:#000000;text-decoration-line:none;fill:#808080;font-variant-position:normal;mix-blend-mode:normal;font-feature-settings:normal;shape-padding:0;font-variant-alternates:normal;text-indent:0;font-variant-caps:normal;image-rendering:auto;white-space:normal;text-decoration-style:solid;font-variant-ligatures:none;isolation:auto;text-transform:none" d="m-43.869 106.5-0.01134 0.002c-5.0328 0.0582-8.7136-0.12019-11.725 1.541-1.5055 0.83063-2.6968 2.2356-3.3555 3.9902-0.65866 1.7547-0.8965 3.8364-0.8965 6.4668v36.002c0 2.6304 0.23773 4.7121 0.8965 6.4668 0.65866 1.7546 1.85 3.1596 3.3555 3.9902 3.011 1.6613 6.6918 1.4848 11.725 1.543h28.045c5.0328-0.0582 8.7136 0.1183 11.725-1.543 1.5055-0.83063 2.6968-2.2356 3.3555-3.9902 0.65866-1.7547 0.89647-3.8364 0.89647-6.4668v-27.99h-3.9998v28c0 2.3695-0.2502 4.0209-0.64063 5.0606-0.39024 1.0396-0.80931 1.4897-1.543 1.8945-1.4645 0.80803-4.7782 0.98615-9.8164 1.0449h-28c-5.0383-0.0586-8.3519-0.23698-9.8164-1.0449-0.73364-0.40479-1.1508-0.85493-1.541-1.8945-0.39024-1.0396-0.64256-2.691-0.64256-5.0606v-36.002c0-2.3696 0.25247-4.0209 0.64256-5.0605 0.39027-1.0396 0.80738-1.4898 1.541-1.8946 1.4645-0.80802 4.7782-0.98615 9.8164-1.0449l24 0.002v-4l-24.012-0.002z"/>
  <path id="path4156" style="color-rendering:auto;text-decoration-color:#000000;color:#000000;font-variant-numeric:normal;shape-rendering:auto;solid-color:#000000;text-decoration-line:none;fill:#808080;font-variant-position:normal;mix-blend-mode:normal;font-feature-settings:normal;shape-padding:0;font-variant-alternates:normal;text-indent:0;font-variant-caps:normal;image-rendering:auto;white-space:normal;text-decoration-style:solid;font-variant-ligatures:none;isolation:auto;text-transform:none" d="m4.7285 99.092-30 30 2.8281 2.8281 30-30z"/>
  <path id="path5588-9-2-96-84" style="color:#000000;fill:#808080" d="m-3.8992 93.575 16.976 16.965c1.401-3.761 2.7082-7.7088 3.9248-11.843 1.1879-4.1122 2.2361-8.1765 3.1414-12.193-3.9851 0.93641-8.035 1.9991-12.147 3.187-4.1361 1.2172-8.1001 2.5112-11.894 3.8821z"/>
 </g>
</svg>
