<?xml version="1.0" encoding="UTF-8" standalone="no"?>
<!-- Created with Inkscape (http://www.inkscape.org/) -->
<svg id="svg4874" xmlns:rdf="http://www.w3.org/1999/02/22-rdf-syntax-ns#" xmlns="http://www.w3.org/2000/svg" height="96" viewBox="0 0 96 96.000001" width="96" version="1.1" xmlns:cc="http://creativecommons.org/ns#" xmlns:dc="http://purl.org/dc/elements/1.1/">
 <metadata id="metadata4879">
  <rdf:RDF>
   <cc:Work rdf:about="">
    <dc:format>image/svg+xml</dc:format>
    <dc:type rdf:resource="http://purl.org/dc/dcmitype/StillImage"/>
    <dc:title/>
   </cc:Work>
  </rdf:RDF>
 </metadata>
 <g id="layer1" transform="translate(67.857 -78.505)">
  <rect id="rect4782" style="color:#000000;fill:none" transform="rotate(90)" height="96" width="96" y="-28.143" x="78.505"/>
  <path id="path4643" style="color-rendering:auto;text-decoration-color:#000000;color:#000000;font-variant-numeric:normal;shape-rendering:auto;solid-color:#000000;text-decoration-line:none;fill:#808080;font-variant-position:normal;mix-blend-mode:normal;font-feature-settings:normal;shape-padding:0;font-variant-alternates:normal;text-indent:0;font-variant-ligatures:normal;font-variant-caps:normal;image-rendering:auto;white-space:normal;text-decoration-style:solid;text-orientation:mixed;isolation:auto;text-transform:none" d="m33.414 7.5859l-2.828 2.8281 13.586 13.584h-24.184l-0.011 0.002c-5.033 0.058-8.714-0.12-11.725 1.541-1.5055 0.831-2.6969 2.236-3.3555 3.99-0.6587 1.755-0.8965 3.837-0.8965 6.467v40.002c0 2.63 0.2378 4.712 0.8965 6.467 0.6586 1.754 1.85 3.159 3.3555 3.99 3.011 1.661 6.692 1.485 11.725 1.543h0.011 56.024 0.011c5.033-0.058 8.714 0.118 11.725-1.543 1.506-0.831 2.697-2.236 3.356-3.99 0.658-1.755 0.896-3.837 0.896-6.467v-40.002c0-2.63-0.238-4.712-0.896-6.467-0.659-1.754-1.85-3.159-3.356-3.99-3.011-1.661-6.692-1.483-11.725-1.541l-0.011-0.002h-24.184l13.584-13.584-2.828-2.8281-14.586 14.584-14.584-14.584zm-13.414 20.412h44c5.038 0.059 8.352 0.237 9.816 1.045 0.734 0.405 1.153 0.855 1.543 1.895 0.391 1.039 0.641 2.69 0.641 5.06v40.002c0 2.37-0.25 4.021-0.641 5.061-0.39 1.039-0.809 1.489-1.543 1.894-1.464 0.808-4.778 0.986-9.816 1.045h-43.977-0.023c-5.038-0.059-8.352-0.237-9.816-1.045-0.734-0.405-1.1512-0.855-1.5414-1.894-0.3903-1.04-0.6426-2.691-0.6426-5.061v-40.002c0-2.37 0.2523-4.021 0.6426-5.06 0.3902-1.04 0.8074-1.49 1.5414-1.895 1.464-0.808 4.778-0.986 9.816-1.045zm64 6.002a3 3 0 0 1 3 3 3 3 0 0 1 -3 3 3 3 0 0 1 -3 -3 3 3 0 0 1 3 -3zm0 12a3 3 0 0 1 3 3 3 3 0 0 1 -3 3 3 3 0 0 1 -3 -3 3 3 0 0 1 3 -3z" transform="translate(-67.857 78.505)"/>
 </g>
</svg>
