<?xml version="1.0" encoding="UTF-8" standalone="no"?>
<!-- Created with Inkscape (http://www.inkscape.org/) -->
<svg id="svg4874" xmlns:rdf="http://www.w3.org/1999/02/22-rdf-syntax-ns#" xmlns="http://www.w3.org/2000/svg" height="96" viewBox="0 0 96 96.000001" width="96" version="1.1" xmlns:cc="http://creativecommons.org/ns#" xmlns:dc="http://purl.org/dc/elements/1.1/">
 <metadata id="metadata4879">
  <rdf:RDF>
   <cc:Work rdf:about="">
    <dc:format>image/svg+xml</dc:format>
    <dc:type rdf:resource="http://purl.org/dc/dcmitype/StillImage"/>
    <dc:title/>
   </cc:Work>
  </rdf:RDF>
 </metadata>
 <g id="layer1" transform="translate(67.857 -78.505)">
  <rect id="rect4782-96" style="color:#000000;fill:none" transform="rotate(90)" height="96" width="96" y="-28.143" x="78.505"/>
  <path id="path4122-1" d="m28.136 119.48c0 7.2727-2.3645 11.898-6.0644 14.324s-8.2213 2.6688-12.451 2.6688h-59.163v-3.9984h59.162c4.028 0 7.7642-0.37984 10.258-2.0148 2.4936-1.635 4.2578-4.5079 4.2578-10.98s-1.7643-9.3451-4.2578-10.98c-2.4935-1.635-6.2298-2.0148-10.258-2.0148h-24.484v-3.9984h24.484c4.2299 0 8.7512 0.24491 12.451 2.6708 3.6999 2.426 6.0644 7.0498 6.0644 14.322z" style="color-rendering:auto;text-decoration-color:#000000;color:#000000;font-variant-numeric:normal;shape-rendering:auto;solid-color:#000000;text-decoration-line:none;fill:#808080;font-variant-position:normal;mix-blend-mode:normal;font-feature-settings:normal;shape-padding:0;font-variant-alternates:normal;text-indent:0;font-variant-caps:normal;image-rendering:auto;white-space:normal;text-decoration-style:solid;font-variant-ligatures:none;isolation:auto;text-transform:none"/>
  <path id="path5588-9-2-96-2" style="color:#000000;fill:#808080" d="m-45.857 122.5-0.0076 24c-3.65-1.6687-7.3659-3.5359-11.149-5.5987-3.7477-2.0678-7.3628-4.2005-10.843-6.4002 3.48-2.1557 7.0951-4.2681 10.843-6.3358 3.7853-2.0639 7.5033-3.9519 11.155-5.6652z"/>
 </g>
</svg>
