<?xml version="1.0" encoding="UTF-8" standalone="no"?>
<!-- Created with Inkscape (http://www.inkscape.org/) -->
<svg id="svg4874" xmlns:rdf="http://www.w3.org/1999/02/22-rdf-syntax-ns#" xmlns="http://www.w3.org/2000/svg" height="96" viewBox="0 0 96 96.000001" width="96" version="1.1" xmlns:cc="http://creativecommons.org/ns#" xmlns:dc="http://purl.org/dc/elements/1.1/">
 <metadata id="metadata4879">
  <rdf:RDF>
   <cc:Work rdf:about="">
    <dc:format>image/svg+xml</dc:format>
    <dc:type rdf:resource="http://purl.org/dc/dcmitype/StillImage"/>
    <dc:title/>
   </cc:Work>
  </rdf:RDF>
 </metadata>
 <g id="layer1" transform="translate(67.857 -78.505)">
  <rect id="rect4782-637" style="color:#000000;fill:none" transform="rotate(90)" height="96" width="96" y="-28.143" x="78.505"/>
  <path id="rect4747-4" style="color:#000000;fill:#808080" d="m20.143 124.51 1 4h-33v-4z"/>
  <path id="path4145" style="color-rendering:auto;text-decoration-color:#000000;color:#000000;font-variant-numeric:normal;shape-rendering:auto;solid-color:#000000;text-decoration-line:none;fill:#808080;font-variant-position:normal;mix-blend-mode:normal;font-feature-settings:normal;shape-padding:0;font-variant-alternates:normal;text-indent:0;font-variant-caps:normal;image-rendering:auto;white-space:normal;text-decoration-style:solid;font-variant-ligatures:none;isolation:auto;text-transform:none" d="m5.6231 101.06c-10.294-10.292-25.79-13.374-39.24-7.806-13.45 5.5681-22.23 18.701-22.23 33.252s8.7807 27.682 22.23 33.25c13.45 5.568 28.946 2.486 39.24-7.8028l-2.8281-2.8281c-9.1582 9.1532-22.917 11.887-34.883 6.9336-11.966-4.9538-19.76-16.609-19.76-29.553s7.7936-24.601 19.76-29.555c11.966-4.9538 25.725-2.2196 34.883 6.9336z"/>
  <path id="path5837" d="m7.1431 114.5 0.0076 24c3.65-1.6687 7.3659-3.5359 11.149-5.5987 3.7477-2.0678 7.3628-4.2005 10.843-6.4003-3.48-2.1558-7.0951-4.2681-10.843-6.3358-3.7853-2.0639-7.5033-3.9519-11.155-5.6652z" style="color:#000000;fill:#808080"/>
 </g>
</svg>
