<?xml version="1.0" encoding="UTF-8" standalone="no"?>
<!-- Created with Inkscape (http://www.inkscape.org/) -->
<svg id="svg4874" xmlns:rdf="http://www.w3.org/1999/02/22-rdf-syntax-ns#" xmlns="http://www.w3.org/2000/svg" height="96" viewBox="0 0 96 96.000001" width="96" version="1.1" xmlns:cc="http://creativecommons.org/ns#" xmlns:dc="http://purl.org/dc/elements/1.1/">
 <metadata id="metadata4879">
  <rdf:RDF>
   <cc:Work rdf:about="">
    <dc:format>image/svg+xml</dc:format>
    <dc:type rdf:resource="http://purl.org/dc/dcmitype/StillImage"/>
    <dc:title/>
   </cc:Work>
  </rdf:RDF>
 </metadata>
 <g id="layer1" transform="translate(67.857 -78.505)">
  <rect id="rect4782" style="color:#000000;fill:none" transform="rotate(90)" height="96" width="96" y="-28.143" x="78.505"/>
  <path id="path4209" style="color:#000000;fill:#808080" d="m51.461 8l-39.584 39.584c-6.0899 6.09-4.5684 7.611 1.521 13.701l21.317 21.317c6.09 6.089 7.611 7.611 13.701 1.521l39.584-39.584v-31.973c0-1.522-0.381-2.6622-1.143-3.4234-0.761-0.7612-1.901-1.1426-3.423-1.1426h-31.973zm1.689 3.994h30.307l0.543 0.006 0.006 0.543v30.307l-38.406 38.408c-2.983 2.965-4.198 2.299-8.02-1.524l-21.314-21.316c-3.906-3.906-4.478-5.064-1.524-8.018l38.408-38.406z" transform="translate(-67.857 78.505)"/>
  <path id="path4207" style="color:#000000;fill:#808080" d="m5.2158 96.506a5.0002 5.0002 0 0 1 3.4627 1.4639 5.0002 5.0002 0 0 1 0 7.0712 5.0002 5.0002 0 0 1 -7.0712 0 5.0002 5.0002 0 0 1 0 -7.0712 5.0002 5.0002 0 0 1 3.6085 -1.4639z"/>
  <path id="path4217" style="color-rendering:auto;text-decoration-color:#000000;color:#000000;font-variant-numeric:normal;shape-rendering:auto;solid-color:#000000;text-decoration-line:none;fill:#808080;font-variant-position:normal;mix-blend-mode:normal;block-progression:tb;font-feature-settings:normal;shape-padding:0;font-variant-alternates:normal;text-indent:0;font-variant-caps:normal;image-rendering:auto;white-space:normal;text-decoration-style:solid;font-variant-ligatures:none;isolation:auto;text-transform:none" d="m-13.271 108.09-27 27 2.8281 2.8281 27-27-2.8281-2.8281z"/>
  <path id="path4219" style="color-rendering:auto;text-decoration-color:#000000;color:#000000;font-variant-numeric:normal;shape-rendering:auto;solid-color:#000000;text-decoration-line:none;fill:#808080;font-variant-position:normal;mix-blend-mode:normal;block-progression:tb;font-feature-settings:normal;shape-padding:0;font-variant-alternates:normal;text-indent:0;font-variant-caps:normal;image-rendering:auto;white-space:normal;text-decoration-style:solid;font-variant-ligatures:none;isolation:auto;text-transform:none" d="m-13.271 126.09-18 18 2.8281 2.8281 18-18-2.8281-2.8281z"/>
 </g>
</svg>
